<?xml version="1.0" encoding="UTF-8"?>
<svg width="519px" height="160px" viewBox="0 0 519 160" version="1.1" xmlns="http://www.w3.org/2000/svg" xmlns:xlink="http://www.w3.org/1999/xlink">
    <!-- Generator: Sketch 49 (51002) - http://www.bohemiancoding.com/sketch -->
    <title>Group</title>
    <desc>Created with Sketch.</desc>
    <defs></defs>
    <g id="Elementer" stroke="none" stroke-width="1" fill="none" fill-rule="evenodd">
        <g id="Logo-animering" transform="translate(-147.000000, -150.000000)" fill="#e70000">
            <g id="Group" transform="translate(147.000000, 150.000000)">
                <path d="M115.540691,149.21832 C124.070454,148.177343 127.398808,143.183694 127.398808,135.691701 L127.398808,31.0089501 C127.398808,22.47598 127.190691,17.2726159 121.158334,17.2726159 L113.461039,17.2726159 L113.461039,10.6134039 C146.746103,3.95419202 155.483984,0 155.483984,0 L156.108335,0.624586057 C156.108335,0.624586057 154.027164,8.11657939 154.027164,24.1415428 L154.027164,135.691701 C154.027164,141.934522 152.988097,146.929691 152.988097,146.929691 L169.62987,148.803449 L168.798921,155.04627 L115.540691,156.293923 L115.540691,149.21832 Z" id="Fill-1"></path>
                <path d="M228.933755,136.477274 L228.933755,110.361368 L223.323611,111.40637 C212.520517,113.287375 203.378622,119.136337 203.378622,131.044787 C203.378622,137.522276 206.288372,143.162238 213.351875,143.162238 C218.962019,143.162238 224.778486,140.028756 228.933755,136.477274 M221.870252,102.0044 L229.141594,100.960923 C229.141594,94.0654334 229.141594,84.0379874 228.102398,79.0235017 C226.855362,72.9655391 223.739289,68.9960557 218.338501,68.9960557 C206.494694,68.9960557 198.393512,91.3499528 198.393512,91.3499528 L188.835938,91.3499528 L184.26499,72.9655391 C184.26499,72.9655391 201.093906,59.5940856 228.310237,59.5940856 C250.12578,59.5940856 255.528085,67.9510533 255.528085,89.4704741 L255.528085,136.477274 C255.528085,142.744237 256.565765,146.297245 260.513195,146.297245 C264.876303,146.297245 269.65509,142.744237 269.65509,142.744237 L272.980519,148.385724 C272.980519,148.385724 262.799427,159.667173 247.21603,159.667173 C236.620776,159.667173 229.765112,154.652687 229.765112,145.668718 L229.765112,142.326236 C229.765112,142.326236 218.962019,159.667173 200.678227,159.667173 C188.420259,159.667173 176.37013,151.937206 176.37013,136.268273 C176.37013,115.166853 200.678227,105.139407 221.870252,102.0044" id="Fill-3"></path>
                <path d="M279.125689,149.264257 C287.879535,148.230039 291.296887,143.26881 291.296887,135.825457 L291.296887,86.8216219 C291.296887,78.3440506 291.081743,73.1759781 284.890911,73.1759781 L276.350649,73.1759781 L276.350649,66.5584901 C301.544265,62.62997 319.479127,56.2208354 319.479127,56.2208354 L320.118321,56.8413665 C320.118321,56.8413665 318.19762,61.3889079 317.129697,79.7919563 C324.602036,70.2801666 337.624454,59.1151372 355.133706,59.1151372 C369.8648,59.1151372 380.540906,66.9721775 380.540906,87.0284656 L380.540906,135.825457 C380.540906,142.027748 379.471425,146.783643 379.471425,146.783643 L396.551948,148.852079 L395.69761,155.05437 L343.603261,156.293923 L343.603261,149.264257 C350.863575,148.230039 353.211445,143.26881 353.211445,135.825457 L353.211445,95.0923496 C353.211445,80.6193311 349.582068,77.3098322 341.255391,77.3098322 C334.210221,77.3098322 325.456374,79.7919563 318.624789,84.9615386 L318.624789,135.825457 C318.624789,142.027748 317.555307,146.783643 317.555307,146.783643 L331.006453,148.852079 L330.152115,155.05437 L279.125689,156.293923 L279.125689,149.264257 Z" id="Fill-5"></path>
                <path d="M51.048643,149.161885 C44.5367886,149.161885 40.9656232,147.061748 40.9656232,147.061748 L40.9656232,137.107191 C40.9656232,137.062703 40.9671572,137.019749 40.9671572,136.976795 L40.9671572,85.29563 L40.9656232,85.29563 L40.9656232,78.7835178 C46.0063661,76.6818468 50.4181666,75.6310112 54.4096495,75.6310112 C71.8466928,75.6310112 78.7788647,93.6992462 78.7788647,111.347147 C78.7788647,131.724152 69.5364801,149.161885 51.048643,149.161885 M67.645051,59.0354801 C54.6198083,59.0354801 45.5860485,64.917091 40.1249881,72.4800387 C40.1249881,69.9595675 40.9656232,64.0764225 40.9656232,53.3625023 L40.9656232,24.37018 C40.9656232,8.19344904 43.0656771,0.630501321 43.0656771,0.630501321 L42.4352007,0 C42.4352007,0 33.6115997,3.99164096 0,10.7139203 L0,17.4377336 L7.77280708,17.4377336 C13.8643439,17.4377336 14.0745026,22.6903772 14.0745026,31.3026264 L14.0745026,135.50716 C14.0745026,136.283397 14.0668326,137.033556 14.0530266,137.769908 C13.8198577,144.887976 10.4066949,149.619037 2.10158786,150.631521 L2.10158786,157.775669 L17.907983,157.378345 C26.4447249,158.004245 38.4207077,159.667173 48.3181127,159.667173 C88.2329421,159.667173 106.720779,130.883483 106.720779,104.413166 C106.720779,81.7243233 93.6955365,59.0354801 67.645051,59.0354801" id="Fill-7"></path>
                <path d="M404.293852,149.21832 C413.001785,148.177343 416.401818,143.183694 416.401818,135.691701 L416.401818,31.0089501 C416.401818,22.47598 416.189316,17.2726159 410.028306,17.2726159 L402.168831,17.2726159 L402.168831,10.6134039 C436.156757,3.95419202 445.078743,0 445.078743,0 L445.714698,0.624586057 C445.714698,0.624586057 443.591228,8.11657939 443.591228,24.1415428 L443.591228,99.2711911 L447.202213,99.2711911 L468.019662,81.3724695 C472.480655,77.4182775 475.666635,74.7132576 475.666635,71.8000424 C475.666635,69.7180888 473.754116,68.2622411 469.082173,67.2212643 L469.082173,60.9784431 L510.078014,60.9784431 L511.142076,64.3065294 C511.142076,64.3065294 496.271583,69.0935028 488.837112,75.7542344 L468.869671,93.2350456 L468.869671,96.1497805 C468.869671,96.1497805 470.357185,98.4384097 471.630647,99.8942575 L500.732576,136.939353 C508.804553,146.929691 511.778031,147.762472 516.664028,148.177343 L519,148.387058 L518.149992,155.670856 L479.490122,156.293923 C479.490122,156.293923 477.365101,148.593734 472.268153,141.934522 L447.202213,108.428747 L443.591228,108.428747 L443.591228,135.691701 C443.591228,141.934522 442.528718,146.929691 442.528718,146.929691 L457.39766,148.803449 L456.547651,155.04627 L404.293852,156.293923 L404.293852,149.21832 Z" id="Fill-10"></path>
            </g>
        </g>
    </g>
</svg>