<?xml version="1.0" encoding="UTF-8" standalone="no"?>
<svg
   xmlns:dc="http://purl.org/dc/elements/1.1/"
   xmlns:cc="http://creativecommons.org/ns#"
   xmlns:rdf="http://www.w3.org/1999/02/22-rdf-syntax-ns#"
   xmlns:svg="http://www.w3.org/2000/svg"
   xmlns="http://www.w3.org/2000/svg"
   height="60.5"
   width="300.20001"
   xml:space="preserve"
   viewBox="0 0 300.2 60.500001"
   y="0px"
   x="0px"
   id="Layer_1"
   version="1.1"><metadata
   id="metadata15"><rdf:RDF><cc:Work
       rdf:about=""><dc:format>image/svg+xml</dc:format><dc:type
         rdf:resource="http://purl.org/dc/dcmitype/StillImage" /><dc:title></dc:title></cc:Work></rdf:RDF></metadata><defs
   id="defs13" />
<style
   id="style2"
   type="text/css">
	.st0{fill:#0E3E4D;}
</style>
<g
   transform="translate(-31,-25.6)"
   id="g8">
	<path
   style="fill:#0e3e4d"
   id="path4"
   d="M 81,36.5 V 85 H 67 V 44.6 Z M 49,85 H 63 V 46.9 L 49,55 Z M 31,85 H 45 V 57.3 l -14,8.1 z"
   class="st0" />
	<path
   style="fill:#0e3e4d"
   id="path6"
   d="m 124.1,66.8 c 0,-11.6 5.7,-19.2 18.6,-19.2 12.9,0 18.6,7.6 18.6,19.2 0,11.6 -5.8,19.2 -18.6,19.2 -13,0 -18.6,-7.7 -18.6,-19.2 z m 21.5,0 c 0,-8.8 -0.4,-11.1 -3,-11.1 -2.4,0 -3,2.2 -3,11.1 0,8.8 0.5,11.2 3,11.2 2.6,-0.1 3,-2.4 3,-11.2 z m 18.8,0 c 0,-11.6 5.7,-19.2 18.6,-19.2 12.9,0 18.6,7.6 18.6,19.2 0,11.6 -5.8,19.2 -18.6,19.2 -13,0 -18.6,-7.7 -18.6,-19.2 z m 21.5,0 c 0,-8.8 -0.4,-11.1 -3,-11.1 -2.4,0 -3,2.2 -3,11.1 0,8.8 0.5,11.2 3,11.2 2.6,-0.1 3,-2.4 3,-11.2 z m 28.4,6.7 c 0.4,0 0.7,0 1.6,0.1 0.2,1.9 1,4.7 4.6,4.7 1.9,0 2.9,-1.2 2.9,-2.8 0,-2.8 -4.4,-3.1 -8.8,-4.1 -5,-1.2 -10.3,-3.2 -10.3,-10.8 0,-7.3 5.2,-12.9 16.3,-12.9 13.4,0 16,7.1 16,11.3 -2.2,0.8 -6.7,1.3 -10.1,1.3 -0.8,0 -1.4,0 -2,-0.1 -0.2,-1.6 -0.5,-4.8 -4.2,-4.8 -1.8,0 -3.1,1 -3.1,2.7 0,2.9 4.2,3.3 8.7,4.4 5.2,1.2 10.7,3 10.7,10.3 0,8 -5.2,13.3 -16.8,13.3 -11.4,0 -15.8,-5.1 -16.1,-11.2 1.8,-0.7 7.1,-1.4 10.6,-1.4 z m 28.4,-16.3 h -3.9 v -8.4 h 1 c 5.3,0 6.6,-1.9 8.1,-8.6 2.1,0 5.7,-0.1 9.5,-0.4 v 9 h 6.7 v 8.4 h -6.7 V 72 c 0,3.3 0.5,4.7 4,4.7 0.8,0 1.8,-0.1 2.6,-0.3 0.2,0.7 0.3,2.8 0.3,4.8 0,1.4 -0.1,2.9 -0.2,3.6 -0.7,0.4 -3.5,1.1 -7.3,1.1 -9.5,0 -14,-2.7 -14,-12.7 v -16 z m 38.7,12.9 c 0.2,6 1,8 3.2,8 2.5,0 2.8,-3.5 2.9,-5 1.2,-0.1 1.6,-0.1 2.2,-0.1 3.1,0 8.8,0.3 11.2,1.2 C 299.7,81 295,86 284.5,86 c -12.2,0 -18.6,-6.9 -18.6,-19.4 0,-12.4 6.5,-19 18.2,-19 12.6,0 17.7,7.9 17.7,18.2 0,1.4 -0.1,3.2 -0.3,4.3 z m 5.9,-7.4 c 0,-5.2 -0.3,-7.4 -2.9,-7.4 -2,0 -2.8,1.6 -3,7.4 z m 18.4,-14 c 2.4,0 8.7,-0.1 13.8,-0.5 v 8.2 h 0.3 c 0.5,-2.2 2,-8.8 8.6,-8.8 1,0 2.1,0.1 2.4,0.3 0.3,1.1 0.4,3.5 0.4,6.1 0,3.1 -0.2,6.4 -0.5,7.5 -0.8,-0.1 -2.3,-0.3 -3.4,-0.3 -4.4,0 -6.7,1.2 -7.1,1.6 v 13.3 c 0,3.3 0.1,7.5 0.7,8.8 H 305.5 V 48.7 Z M 85.1,34.1 V 84.8 H 99 v -3.3 c 1.9,2.5 4.6,4.3 9,4.3 9,0 12.9,-7.3 12.9,-19 0,-11.6 -3.8,-19 -12.9,-19 -4.1,0 -6.6,1.6 -8.4,3.8 v -26 z m 16.7,23 c 2.6,0 3.5,1.1 3.5,9.7 0,8.6 -1,9.7 -3.5,9.7 -0.7,0 -1.4,-0.2 -2.1,-0.7 v -18 c 0.7,-0.5 1.4,-0.7 2.1,-0.7 z"
   class="st0" />
</g>
</svg>