<?xml version="1.0" encoding="UTF-8" standalone="no"?>
<svg
   xmlns="http://www.w3.org/2000/svg"
   height="54.888828"
   width="206.74699"
   version="1.1"
   viewBox="0 0 206.747 54.888826">
  <g
     style="fill:#ff6400;fill-rule:nonzero">
    <path
       d="m 199.658,0.107 h -7.461 v 40.957 c 0.02,7.5 6.074,13.613 13.525,13.711 h 1.025 v -7.471 h -0.85 c -3.428,0 -6.23,-2.812 -6.24,-6.26 V 26.748 h 7.09 v -7.476 h -7.09 V 0.107 Z m -53.955,19.146 c -1.299,3.33 -2.871,7.495 -4.473,11.523 -2.598,6.533 -5.137,13.234 -5.762,14.807 -0.684,-1.514 -3.621,-8.322 -6.541,-14.807 -1.865,-4.135 -3.645,-8.369 -5.07,-11.523 h -8.193 l 5.077,11.523 8.897,20.211 c 0.664,1.396 2.236,3.779 5.693,3.896 1.602,0.059 4.512,-0.273 5.937,-3.672 l 8.008,-20.435 4.453,-11.523 z m 25.625,28.013 c -5.732,0 -10.41,-4.713 -10.41,-10.508 0,-2.223 0.693,-4.287 1.865,-5.982 1.885,-2.725 5.02,-4.516 8.545,-4.516 2.549,0 4.854,0.938 6.66,2.465 l -0.029,0.016 -3.525,2.035 -4.863,2.809 -0.01,-0.01 a 3.745,3.745 0 0 0 -1.367,5.107 3.747,3.747 0 0 0 5.107,1.367 l 12.256,-7.037 -0.02,-0.01 a 3.72,3.72 0 0 0 1.729,-2.227 3.684,3.684 0 0 0 -0.361,-2.871 c -0.615,-1.084 -1.357,-2.07 -2.168,-2.998 l -0.049,-0.049 c -3.281,-3.711 -8.037,-6.069 -13.359,-6.069 -7.764,0 -14.394,5.015 -16.865,11.987 a 18.117,18.117 0 0 0 -1.025,5.982 c 0,9.922 8.037,17.979 17.891,17.979 7.432,0 13.818,-4.57 16.524,-11.045 l -6.875,-2.965 c -1.555,3.835 -5.286,6.54 -9.651,6.54 z m -66.103,-16.49 v 6.856 c 0,5.309 -4.277,9.635 -9.541,9.635 -5.273,0 -9.561,-4.326 -9.561,-9.635 v -18.36 h -7.476 v 18.359 c 0,9.439 7.642,17.105 17.036,17.105 9.375,0 17.012,-7.666 17.012,-17.105 V 19.272 h -7.471 V 30.776 Z M 57.012,18.691 c -7.803,0 -14.458,5.063 -16.894,12.084 a 17.822,17.822 0 0 0 -0.996,5.889 c 0,9.918 8.032,17.975 17.891,17.975 9.878,0 17.91,-8.057 17.91,-17.975 0,-2.061 -0.356,-4.043 -0.996,-5.889 -2.438,-7.02 -9.093,-12.084 -16.915,-12.084 z m 0,28.487 c -5.737,0 -10.41,-4.717 -10.41,-10.514 a 10.5,10.5 0 0 1 1.797,-5.889 c 1.875,-2.778 5.039,-4.609 8.613,-4.609 3.589,0 6.753,1.831 8.633,4.609 a 10.465,10.465 0 0 1 1.802,5.889 C 67.446,42.461 62.769,47.178 57.012,47.178 Z M 17.895,18.794 A 17.699,17.699 0 0 0 7.47,22.178 V 0 H 0 v 36.768 c 0,9.922 8.032,17.979 17.895,17.979 9.878,0 17.9,-8.057 17.9,-17.979 0,-2.1 -0.366,-4.117 -1.03,-5.992 -2.46,-6.972 -9.091,-11.982 -16.87,-11.982 z m 0,28.482 c -5.742,0 -10.425,-4.713 -10.425,-10.508 0,-2.227 0.698,-4.293 1.88,-5.992 1.885,-2.719 5.015,-4.501 8.545,-4.501 3.54,0 6.675,1.783 8.56,4.501 a 10.464,10.464 0 0 1 1.88,5.992 c 0,5.795 -4.683,10.508 -10.44,10.508 z" />
  </g>
</svg>
