<?xml version="1.0" encoding="UTF-8" standalone="no"?>
<svg
   xmlns:dc="http://purl.org/dc/elements/1.1/"
   xmlns:cc="http://creativecommons.org/ns#"
   xmlns:rdf="http://www.w3.org/1999/02/22-rdf-syntax-ns#"
   xmlns:svg="http://www.w3.org/2000/svg"
   xmlns="http://www.w3.org/2000/svg"
   id="svg8"
   version="1.1"
   viewBox="0 0 73.726562 23.171869"
   height="23.171869mm"
   width="73.726562mm">
  <defs
     id="defs2" />
  <metadata
     id="metadata5">
    <rdf:RDF>
      <cc:Work
         rdf:about="">
        <dc:format>image/svg+xml</dc:format>
        <dc:type
           rdf:resource="http://purl.org/dc/dcmitype/StillImage" />
        <dc:title></dc:title>
      </cc:Work>
    </rdf:RDF>
  </metadata>
  <g
     transform="translate(-48.134766,-165.78516)"
     id="layer1">
    <g
       style="fill:#18bfef;fill-opacity:1"
       transform="translate(-0.9672918,-0.19403346)"
       id="g855">
      <path
         style="font-style:normal;font-variant:normal;font-weight:normal;font-stretch:normal;font-size:16.80273819px;line-height:22.50366783px;font-family:Pacifico;-inkscape-font-specification:Pacifico;font-variant-ligatures:normal;font-variant-caps:normal;font-variant-numeric:normal;font-feature-settings:normal;text-align:center;letter-spacing:0px;word-spacing:0px;writing-mode:lr-tb;text-anchor:middle;fill:#18bfef;fill-opacity:1;stroke:none;stroke-width:1.00000012px;stroke-linecap:butt;stroke-linejoin:miter;stroke-opacity:1"
         d="m 329.21094,646.66211 c -2.15922,0 -4.21263,1.05892 -6.16016,3.17578 -1.94753,2.07456 -3.5762,4.69969 -4.88867,7.875 -2.66727,6.64701 -4.27774,13.03877 -4.82813,19.17773 -0.0309,0.33956 -0.0366,0.91781 -0.0449,1.48243 -2.65625,2.8833 -6.38862,6.07617 -8.3457,6.07617 -1.73584,0 -2.60352,-2.01114 -2.60352,-6.0332 0,-0.76207 0.0423,-1.82098 0.12696,-3.17579 4.44545,-1.82052 7.74898,-2.89963 9.9082,-3.23828 0.71972,-0.12703 1.07812,-0.48733 1.07812,-1.08007 0,-0.59275 -0.16912,-1.05784 -0.50781,-1.39649 -0.29636,-0.38105 -0.61249,-0.57227 -0.95117,-0.57227 -0.97376,0 -3.2184,0.5919 -6.73242,1.77735 2.83662,-2.32857 5.29264,-5.03827 7.36719,-8.12891 2.11688,-3.09063 3.30261,-6.20102 3.55664,-9.33398 v -0.44531 c 0,-1.14312 -0.36034,-2.11748 -1.08008,-2.92188 -0.6774,-0.80443 -1.82086,-1.20508 -3.42969,-1.20508 -1.60883,0 -3.25962,0.84557 -4.95312,2.53907 -1.69351,1.65116 -3.11275,3.76897 -4.25586,6.35156 -2.2439,5.08051 -3.75715,10.67226 -4.47689,16.30315 -1.22903,1.35782 -2.01619,2.01764 -3.59504,2.05036 -0.88909,0 -1.33398,-0.31806 -1.33398,-0.95312 0,-0.25404 0.21139,-0.9747 0.63476,-2.16016 0.46572,-1.22779 0.69922,-2.30685 0.69922,-3.23828 0,-1.43947 -0.93206,-2.1582 -2.79492,-2.1582 -1.31247,0 -3.0257,1.54412 -5.14258,4.63476 -2.07454,3.09065 -3.49378,5.84261 -4.25586,8.25586 l 2.47657,-11.17773 c 0,-0.50807 -0.16912,-0.93084 -0.50782,-1.26953 -0.3387,-0.3387 -0.78359,-0.50782 -1.33398,-0.50782 -1.39714,0 -2.41181,0.95224 -3.04688,2.85743 -1.02823,3.4164 -1.64841,6.89897 -1.87109,10.44531 -2.14527,2.34902 -3.89377,3.57003 -5.24219,3.6543 -0.59273,0 -0.88867,-0.48718 -0.88867,-1.46094 l 0.0625,-0.76172 c 0.42338,-3.97972 1.37561,-8.19322 2.85742,-12.63867 l 0.0645,-0.25391 c 0,-0.46571 -0.23351,-0.88848 -0.69922,-1.26953 -0.46572,-0.38103 -1.03744,-0.57227 -1.71485,-0.57227 -0.63506,0 -1.16451,0.19124 -1.58789,0.57227 -0.38104,0.38105 -0.7817,1.26888 -1.20508,2.66602 l -1.71484,6.35156 c -0.6774,2.32857 -1.62963,4.17058 -2.85742,5.52539 -1.18545,1.31248 -2.35103,1.96875 -3.49414,1.96875 -1.43948,0 -2.15821,-1.03873 -2.15821,-3.11328 v -0.44336 c 0.16936,-2.15922 0.76125,-4.65753 1.77735,-7.49414 1.0161,-2.83661 1.52344,-4.38269 1.52344,-4.63672 0,-0.29637 -0.21139,-0.59231 -0.63477,-0.88867 -0.42338,-0.3387 -1.05755,-0.50782 -1.9043,-0.50782 -0.80441,0 -1.46069,0.44489 -1.96875,1.33399 -0.50805,0.84674 -1.20661,2.64649 -2.0957,5.39844 -0.84675,2.75195 -1.26953,5.39725 -1.26953,7.9375 0,1.94754 0.44294,3.53588 1.33203,4.76367 0.93143,1.22779 2.30839,1.8418 4.12891,1.84179 1.82051,0 3.38675,-0.6361 4.69922,-1.90624 1.31246,-1.27013 2.20225,-2.5606 2.66796,-3.87305 l -0.1914,1.96875 c 0.0423,2.49791 1.31263,3.74609 3.81054,3.74609 1.5665,0 3.64202,-0.82541 6.22461,-2.47656 0.19495,-0.12577 0.33126,-0.23562 0.51172,-0.35742 0.29527,1.71167 1.11408,2.58008 2.47266,2.58008 1.27013,0 2.18008,-0.54962 2.73047,-1.65039 1.90519,-5.20754 3.85193,-9.46331 5.8418,-12.76563 0.63507,-1.01609 0.97329,-1.52344 1.01562,-1.52344 -0.6774,2.66727 -1.01562,4.04229 -1.01562,4.12696 -1e-5,2.45558 1.4394,3.68359 4.31835,3.68359 1.82934,0 2.49578,-0.66088 4.3981,-1.97461 0.0187,3.20993 0.4965,5.73616 1.45117,7.5625 1.01611,1.82052 2.75341,2.73242 5.20899,2.73242 2.6674,0 6.3574,-2.47736 9.40039,-5.3457 0.28412,1.06384 0.68484,2.00284 1.21289,2.80469 1.14311,1.6935 2.77374,2.54101 4.89062,2.54101 2.98468,0 5.82326,-1.24478 8.52344,-3.6914 0.38716,0.64561 0.8624,1.22504 1.44531,1.72265 1.73584,1.43947 3.83153,2.1582 6.28711,2.1582 2.49792,0 4.89151,-0.614 7.17774,-1.84179 1.03767,-0.57648 1.93205,-1.17678 2.71679,-1.79688 0.48252,3.05016 2.08578,5.47806 4.84571,7.25977 3.38701,2.15922 7.62065,3.23828 12.70117,3.23828 5.08051,0 9.33432,-1.14348 12.76367,-3.42969 3.42934,-2.28623 5.14453,-5.39852 5.14453,-9.33593 0,-2.32857 -0.44491,-4.12832 -1.33398,-5.39844 -0.38108,-0.55038 -0.67702,-0.99331 -0.88867,-1.33203 -0.21171,-0.3387 -0.63447,-0.76344 -1.26954,-1.27149 -0.63505,-0.50809 -1.10207,-0.86647 -1.39843,-1.07812 -0.25403,-0.25401 -0.80364,-0.63647 -1.65039,-1.14453 -0.84676,-0.5504 -1.4406,-0.90881 -1.7793,-1.07813 -0.3387,-0.2117 -1.03726,-0.59416 -2.0957,-1.14453 -1.01611,-0.59273 -1.77711,-1.0155 -2.28516,-1.26953 -0.50805,-0.29637 -1.96957,-1.10161 -4.38281,-2.41406 -2.37091,-1.31248 -4.06398,-2.43381 -5.08008,-3.36524 -1.0161,-0.93143 -1.52344,-2.30645 -1.52344,-4.12695 0,-1.82052 1.14346,-3.3666 3.42969,-4.63672 2.28623,-1.31248 4.69802,-1.96875 7.23828,-1.96875 2.54026,0 4.65806,0.48718 6.35156,1.46094 1.73585,0.97378 2.60352,2.30649 2.60352,4 0,1.65115 -0.6784,3.19722 -2.0332,4.63672 -0.42338,0.46571 -0.63477,0.99518 -0.63477,1.58789 0,0.59273 0.23351,1.10005 0.69922,1.52343 0.46571,0.42339 1.12199,0.63477 1.96875,0.63477 0.8891,0 1.84133,-0.52945 2.85742,-1.58789 1.77817,-1.94754 2.64585,-4.33917 2.60352,-7.17578 0,-2.87897 -1.31257,-5.16392 -3.9375,-6.85742 -2.62493,-1.73584 -5.99091,-2.60547 -10.09766,-2.60547 -4.65714,0 -8.74184,1.03872 -12.25586,3.11328 -3.47168,2.07453 -5.20703,4.86878 -5.20703,8.38281 0,1.65115 0.18927,2.87916 0.57031,3.68359 0.42338,0.76208 0.72128,1.35399 0.89063,1.77735 0.21169,0.38105 0.61235,0.84611 1.20508,1.39648 0.63507,0.5504 1.0598,0.953 1.27148,1.20703 0.25402,0.25401 0.80364,0.65663 1.65039,1.20703 0.8891,0.5504 1.43871,0.91076 1.65039,1.08008 0.25403,0.16935 0.91031,0.56999 1.96875,1.20508 1.05844,0.59271 1.84351,1.05972 2.35156,1.39844 0.55039,0.29636 1.56506,0.82584 3.04688,1.58789 1.48181,0.76208 2.64739,1.39623 3.49414,1.9043 0.88909,0.46571 1.8192,1.05957 2.79297,1.77929 1.86285,1.4395 2.79492,3.27956 2.79492,5.52344 0,2.20155 -0.97435,4.0013 -2.92188,5.39844 -1.90519,1.39714 -4.74172,2.0957 -8.50976,2.0957 -3.72571,0 -6.60451,-0.67646 -8.63672,-2.03125 -2.0322,-1.35481 -3.04883,-3.3035 -3.04883,-5.84375 0,-0.59273 0.14895,-1.33356 0.44531,-2.22266 0.29637,-0.93142 0.44532,-1.62998 0.44532,-2.0957 0,-1.14313 -0.69857,-1.71484 -2.09571,-1.71484 -1.3548,0 -2.52037,0.614 -3.49414,1.8418 -0.3325,0.42319 -0.58307,0.88418 -0.79687,1.36132 -2.99732,2.86003 -6.18274,4.29102 -9.5586,4.29102 -2.45558,0 -3.97954,-0.90995 -4.57226,-2.73047 3.85272,-0.80441 6.73153,-1.92576 8.63672,-3.36523 1.90519,-1.4395 2.85742,-3.32378 2.85742,-5.65235 0,-1.65117 -0.57173,-2.96374 -1.71484,-3.9375 -1.14312,-0.97376 -2.58252,-1.46094 -4.31836,-1.46094 -2.9213,0 -5.4196,1.35486 -7.49414,4.06446 -2.03221,2.66729 -3.04883,5.56819 -3.04883,8.70117 0,0.20891 0.0157,0.40585 0.0254,0.60742 -2.31765,2.46445 -4.44462,3.71094 -6.375,3.71094 -2.03221,0 -3.04883,-1.71517 -3.04883,-5.14453 0,-0.71973 0.0846,-1.75652 0.25391,-3.11133 3.68337,-2.87897 7.04935,-6.64755 10.09765,-11.30469 3.04831,-4.65713 4.78366,-9.12428 5.20703,-13.40039 v -0.50781 c 0,-1.22779 -0.3805,-2.24442 -1.14257,-3.04883 -0.76208,-0.84674 -1.7787,-1.26953 -3.04883,-1.26953 z m -80.81802,0.69922 c -6.13895,0 -10.98661,0.90997 -14.54297,2.73047 -3.55636,1.77819 -5.92783,5.0596 -7.11328,9.84375 -0.0423,0.12704 -0.0625,0.29616 -0.0625,0.50781 0,0.97376 0.54961,1.46094 1.65039,1.46094 1.10078,0 1.77918,-0.29594 2.0332,-0.88868 0.46572,-1.10077 1.01533,-2.05496 1.65039,-2.85937 0.67741,-0.80441 1.65175,-1.6298 2.92188,-2.47656 2.49792,-1.65115 6.77385,-2.47657 12.82812,-2.47657 1.43948,0 2.9836,0.0644 4.63477,0.19141 -3.64103,7.57843 -6.1595,14.31039 -7.55664,20.19531 -1.3548,5.84257 -2.03125,10.62583 -2.03125,14.35157 0,1.52413 0.0624,2.51866 0.18945,2.98437 0.50805,1.94754 1.58712,2.92188 3.23828,2.92188 2.37091,0 3.55664,-1.63064 3.55664,-4.89063 v -1.39648 c 0,-9.52597 2.3292,-20.82981 6.98633,-33.91211 3.51402,0.21165 7.17594,0.3164 10.98633,0.3164 3.81038,0 6.45568,-0.21138 7.9375,-0.63476 1.69351,-0.46572 2.54102,-1.52463 2.54102,-3.17578 -0.0847,-1.10078 -0.91008,-1.65039 -2.47657,-1.65039 -3.42934,0 -8.21456,-0.19122 -14.35351,-0.57227 -6.13896,-0.38103 -10.47732,-0.57031 -13.01758,-0.57031 z m 79.23013,4.50781 c 0.71974,0 1.08007,0.42472 1.08007,1.27148 -0.0423,2.3709 -1.1214,5.33427 -3.23828,8.89063 -2.07454,3.55636 -4.36145,6.73111 -6.85937,9.52539 0.63506,-4.0644 1.84291,-8.36244 3.62109,-12.89258 1.82052,-4.53011 3.61831,-6.79492 5.39649,-6.79492 z m -16.32813,2.0957 c 0.33869,0.0423 0.50781,0.36039 0.50781,0.95313 0,0.59274 -0.0845,1.27114 -0.2539,2.0332 -0.12701,0.76207 -0.42296,1.56538 -0.88867,2.41211 -0.42338,0.84677 -0.76356,1.52516 -1.01758,2.0332 -0.25403,0.50805 -0.78152,1.24887 -1.58594,2.22266 -0.76208,0.93143 -1.27137,1.52336 -1.52539,1.77734 -0.21169,0.25403 -0.80358,0.9103 -1.77734,1.96875 -0.93142,1.05846 -1.4407,1.63019 -1.52539,1.71485 0.80441,-5.03815 2.30821,-9.18727 4.50976,-12.44727 1.18545,-1.77819 2.37119,-2.66797 3.55664,-2.66797 z m 82.76172,13.40039 c -2.9213,0 -5.41958,1.35486 -7.49414,4.06446 -2.0322,2.66729 -3.04883,5.56819 -3.04883,8.70117 0,2.79428 0.86963,4.93224 2.60547,6.41406 1.73586,1.43947 3.83155,2.1582 6.28711,2.1582 2.49794,0 4.88957,-0.614 7.17578,-1.84179 1.33635,-0.74242 2.43666,-1.5251 3.35352,-2.33985 0.14036,0.23771 0.29045,0.46958 0.45703,0.68946 1.77817,2.32856 4.08526,3.49218 6.92187,3.49218 2.87897,10e-6 5.37726,-0.69856 7.49414,-2.0957 2.15922,-1.39714 3.85229,-3.04791 5.08008,-4.95312 0.16932,-0.29634 0.25391,-0.63458 0.25391,-1.01563 0,-0.42338 -0.14895,-0.80583 -0.44531,-1.14453 -0.25404,-0.38103 -0.52786,-0.57031 -0.82422,-0.57031 -0.29637,0 -0.57217,0.12685 -0.82617,0.38086 -3.4717,3.81039 -6.71084,5.71484 -9.7168,5.71484 -1.43947,0 -2.60309,-0.44489 -3.49219,-1.33398 -0.8891,-0.8891 -1.33398,-2.11516 -1.33398,-3.68164 0,-2.75193 0.614,-4.86974 1.84179,-6.35157 1.27013,-1.48182 2.58269,-2.22265 3.9375,-2.22265 0.50805,0 0.95294,0.14894 1.33399,0.44531 0.38102,0.25403 0.57031,0.65468 0.57031,1.20508 0,0.55037 -0.14699,1.10194 -0.44336,1.65234 -0.25401,0.50805 -0.38086,0.93084 -0.38086,1.26953 0,0.3387 0.147,0.69903 0.44336,1.08008 0.29634,0.3387 0.74125,0.50781 1.33398,0.50781 0.59274,0 1.2913,-0.54961 2.09571,-1.65039 0.80443,-1.10077 1.20703,-2.30861 1.20703,-3.62109 0,-1.31245 -0.55154,-2.45591 -1.65234,-3.42969 -1.05842,-1.01609 -2.47572,-1.52344 -4.25391,-1.52344 -3.09065,0 -5.65335,1.33469 -7.68555,4.00196 -2.0322,2.62493 -3.04687,5.48162 -3.04687,8.57226 0,0.36421 0.0214,0.71374 0.0527,1.05664 -2.74212,2.33671 -5.63805,3.51563 -8.68945,3.51563 -2.45559,0 -3.97954,-0.90995 -4.57227,-2.73047 3.85273,-0.80441 6.73154,-1.92576 8.63672,-3.36523 1.90521,-1.4395 2.85742,-3.32378 2.85742,-5.65235 0,-1.65117 -0.57171,-2.96374 -1.71484,-3.9375 -1.14311,-0.97376 -2.58252,-1.46094 -4.31836,-1.46094 z m -56.20898,4.12891 c 1.39714,0 2.0957,0.59191 2.0957,1.77734 0,1.98988 -2.6453,3.89433 -7.9375,5.71485 0,-1.82052 0.63417,-3.51359 1.9043,-5.08008 1.27013,-1.60882 2.58269,-2.41211 3.9375,-2.41211 z m 56.27148,0 c 1.39714,0 2.0957,0.59191 2.0957,1.77734 0,1.98988 -2.6453,3.89433 -7.9375,5.71485 0,-1.82052 0.63613,-3.51359 1.90625,-5.08008 1.27013,-1.60882 2.58074,-2.41211 3.93555,-2.41211 z"
         transform="scale(0.26458333)"
         id="path825" />
    </g>
    <path
       id="rect823"
       d="m 48.134766,165.78516 c 0,7.72396 0,15.44791 0,23.17187 24.575521,0 49.151043,0 73.726564,0 0,-7.72396 0,-15.44791 0,-23.17187 -24.575521,0 -49.151043,0 -73.726564,0 z m 1.25,1.25 c 23.742188,0 47.484376,0 71.226564,0 0,6.89062 0,13.78125 0,20.67187 -23.742188,0 -47.484376,0 -71.226564,0 0,-6.89062 0,-13.78125 0,-20.67187 z"
       style="color:#000000;font-style:normal;font-variant:normal;font-weight:normal;font-stretch:normal;font-size:medium;line-height:normal;font-family:sans-serif;font-variant-ligatures:normal;font-variant-position:normal;font-variant-caps:normal;font-variant-numeric:normal;font-variant-alternates:normal;font-feature-settings:normal;text-indent:0;text-align:start;text-decoration:none;text-decoration-line:none;text-decoration-style:solid;text-decoration-color:#000000;letter-spacing:normal;word-spacing:normal;text-transform:none;writing-mode:lr-tb;direction:ltr;text-orientation:mixed;dominant-baseline:auto;baseline-shift:baseline;text-anchor:start;white-space:normal;shape-padding:0;clip-rule:nonzero;display:inline;overflow:visible;visibility:visible;opacity:1;isolation:auto;mix-blend-mode:normal;color-interpolation:sRGB;color-interpolation-filters:linearRGB;solid-color:#000000;solid-opacity:1;vector-effect:none;fill:#18bfef;fill-opacity:1;fill-rule:nonzero;stroke:none;stroke-width:1.25;stroke-linecap:butt;stroke-linejoin:miter;stroke-miterlimit:4;stroke-dasharray:none;stroke-dashoffset:75.58999634;stroke-opacity:1;color-rendering:auto;image-rendering:auto;shape-rendering:auto;text-rendering:auto;enable-background:accumulate" />
  </g>
</svg>
